<?xml version="1.0" encoding="UTF-8" standalone="no"?>
<svg
   xmlns:dc="http://purl.org/dc/elements/1.1/"
   xmlns:cc="http://creativecommons.org/ns#"
   xmlns:rdf="http://www.w3.org/1999/02/22-rdf-syntax-ns#"
   xmlns:svg="http://www.w3.org/2000/svg"
   xmlns="http://www.w3.org/2000/svg"
   id="svg15"
   xml:space="preserve"
   viewBox="0 0 1024 768"
   y="0px"
   x="0px"
   version="1.1"><metadata
     id="metadata21"><rdf:RDF><cc:Work
         rdf:about=""><dc:format>image/svg+xml</dc:format><dc:type
           rdf:resource="http://purl.org/dc/dcmitype/StillImage" /></cc:Work></rdf:RDF></metadata><defs
     id="defs19" /><g
     style="stroke-width:0;stroke-miterlimit:2"
     transform="matrix(1.2803,0,0,1.2803,-143.52,-107.64)"
     stroke-miterlimit="2"
     id="logo-group"><path
       d="m 333.95,400.08 c 2.9383,0 5.7658,-0.5544 8.4823,-1.7186 2.6057,-1.1088 4.9342,-2.6611 6.9854,-4.7124 1.9958,-1.9958 3.5482,-4.3243 4.657,-6.93 1.1642,-2.7166 1.7186,-5.544 1.7186,-8.5378 0,-2.9383 -0.5544,-5.7658 -1.7186,-8.4823 -1.1088,-2.6057 -2.6611,-4.9342 -4.657,-6.9854 -2.0513,-1.9958 -4.3798,-3.5482 -6.9854,-4.657 -2.7166,-1.1642 -5.544,-1.7186 -8.4823,-1.7186 -2.9938,0 -5.8212,0.5544 -8.5378,1.7186 -2.6057,1.1088 -4.9342,2.6611 -6.93,4.657 -2.0513,2.0513 -3.6036,4.3798 -4.7124,6.9854 -1.1642,2.7166 -1.7186,5.544 -1.7186,8.4823 0,2.9938 0.5544,5.8212 1.7186,8.5378 1.1088,2.6057 2.6611,4.9342 4.7124,6.93 1.9958,2.0513 4.3243,3.6036 6.93,4.7124 2.7166,1.1642 5.544,1.7186 8.5378,1.7186 z m 0,-35.038 c 3.4927,0 6.8191,1.386 9.3139,3.8808 2.4394,2.4394 3.8254,5.7658 3.8254,9.3139 0,3.4927 -1.386,6.8191 -3.8254,9.3139 -2.4948,2.4394 -5.8212,3.8254 -9.3139,3.8254 -3.5482,0 -6.8746,-1.386 -9.3139,-3.8254 -2.4948,-2.4948 -3.8808,-5.8212 -3.8808,-9.3139 0,-3.5482 1.386,-6.8746 3.8808,-9.3139 2.4394,-2.4948 5.7658,-3.8808 9.3139,-3.8808 z"
       style="font-variant-ligatures:normal;fill:#3b59aa"
       id="path51756" /><path
       d="m 380.96,390.26 3.5482,9.5911 h 9.203 l -16.466,-43.243 h -7.4844 l -16.41,43.243 h 9.2585 l 3.4927,-9.5911 z m -7.4844,-20.402 4.5461,12.308 h -8.9813 z"
       style="font-variant-ligatures:normal;fill:#4956a4"
       id="path51758" /><path
       d="m 429.13,374.96 v 24.893 h 8.7041 V 356.61 h -7.8725 l -13.416,23.562 -13.416,-23.562 h -7.9279 v 43.243 h 8.7595 v -24.837 l 9.8129,16.909 h 5.4886 z"
       style="font-variant-ligatures:normal;fill:#56539e"
       id="path51760" /><path
       d="m 467.47,372.86 19.182,26.999 h 7.8725 v -43.243 h -8.7041 v 27.276 l -19.349,-27.276 h -7.7062 v 43.243 h 8.7041 z"
       style="font-variant-ligatures:normal;fill:#645098"
       id="path51762" /><path
       d="m 529.22,368.64 h -8.316 v 1.7186 c -2.1622,-1.1088 -4.6015,-1.7186 -7.0963,-1.7186 -2.1622,0 -4.2134,0.44352 -6.1538,1.2751 -1.885,0.77616 -3.6036,1.9404 -5.045,3.3818 -1.4414,1.4414 -2.6057,3.1046 -3.3818,4.9896 -0.8316,1.9958 -1.2197,4.0471 -1.2197,6.1538 0,2.1622 0.38808,4.2134 1.2197,6.1538 0.77616,1.885 1.9404,3.6036 3.3818,5.045 1.4414,1.4414 3.1601,2.6057 5.045,3.3818 1.9404,0.8316 3.9917,1.2197 6.1538,1.2197 2.4394,0 4.9342,-0.5544 7.0963,-1.6632 v 1.2751 h 8.316 z m -11.64,22.29 c -1.1642,0.66528 -2.4394,0.99792 -3.7699,0.99792 -4.158,0 -7.4844,-3.3264 -7.4844,-7.4844 0,-4.1026 3.3264,-7.4844 7.4844,-7.4844 1.4414,0 2.8274,0.44352 4.0471,1.2197 1.1642,0.77616 2.1067,1.8295 2.7166,3.1046 0.44352,0.99792 0.66528,2.0513 0.66528,3.2155 0,1.2751 -0.33264,2.6057 -0.99792,3.7145 -0.60984,1.1088 -1.5523,2.0513 -2.6611,2.7166 z"
       style="font-variant-ligatures:normal;fill:#724d92"
       id="path51764" /><path
       d="m 529.36,368.98 12.529,30.88 h 6.9854 l 12.529,-30.88 h -9.0367 l -6.93,17.907 -6.9854,-17.907 z"
       style="font-variant-ligatures:normal;fill:#7f4a8c"
       id="path51766" /><path
       d="m 562.38,370.64 v 29.217 h 8.3714 v -31.989 z"
       style="font-variant-ligatures:normal;fill:#8d4787"
       id="path51768" /><path
       d="m 600.2,373.13 c -2.9383,-2.9383 -6.8191,-4.5461 -10.977,-4.5461 -4.158,0 -8.0388,1.6078 -10.977,4.5461 -2.9383,2.9383 -4.5461,6.8746 -4.5461,10.977 0,4.158 1.6078,8.0942 4.5461,11.033 2.9383,2.9383 6.8191,4.5461 10.977,4.5461 2.4394,0 4.8233,-0.5544 6.9854,-1.6632 -0.88704,3.0492 -3.659,5.2668 -6.9854,5.2668 -1.885,0 -3.6036,-0.66528 -4.9896,-1.9404 l -5.7103,5.9875 c 2.8829,2.772 6.7082,4.3243 10.7,4.3243 4.158,0 8.0388,-1.6632 10.977,-4.6015 2.9383,-2.8829 4.5461,-6.8191 4.5461,-10.977 v -11.975 c 0,-4.1026 -1.6078,-8.0388 -4.5461,-10.977 z m -10.977,18.24 c -3.9917,0 -7.2072,-3.271 -7.2072,-7.2626 0,-3.9362 3.2155,-7.2072 7.2072,-7.2072 3.9917,0 7.2626,3.2155 7.2626,7.2072 -0.0554,3.9917 -3.271,7.2626 -7.2626,7.2626 z"
       style="font-variant-ligatures:normal;fill:#9a4481"
       id="path51770" /><path
       d="m 638.26,368.64 h -8.316 v 1.7186 c -2.1622,-1.1088 -4.6015,-1.7186 -7.0963,-1.7186 -2.1622,0 -4.2134,0.44352 -6.1538,1.2751 -1.885,0.77616 -3.6036,1.9404 -5.045,3.3818 -1.4414,1.4414 -2.6057,3.1046 -3.3818,4.9896 -0.83159,1.9958 -1.2197,4.0471 -1.2197,6.1538 0,2.1622 0.38808,4.2134 1.2197,6.1538 0.77616,1.885 1.9404,3.6036 3.3818,5.045 1.4414,1.4414 3.1601,2.6057 5.045,3.3818 1.9404,0.8316 3.9917,1.2197 6.1538,1.2197 2.4394,0 4.9342,-0.5544 7.0963,-1.6632 v 1.2751 h 8.316 z m -11.64,22.29 c -1.1642,0.66528 -2.4394,0.99792 -3.7699,0.99792 -4.158,0 -7.4844,-3.3264 -7.4844,-7.4844 0,-4.1026 3.3264,-7.4844 7.4844,-7.4844 1.4414,0 2.8274,0.44352 4.0471,1.2197 1.1642,0.77616 2.1067,1.8295 2.7166,3.1046 0.44353,0.99792 0.66529,2.0513 0.66529,3.2155 0,1.2751 -0.33264,2.6057 -0.99793,3.7145 -0.60984,1.1088 -1.5523,2.0513 -2.6611,2.7166 z"
       style="font-variant-ligatures:normal;fill:#a8417b"
       id="path51772" /><path
       d="m 651.21,383.28 v -6.5419 h 8.815 v -7.7616 h -8.815 v -9.93 l -8.316,2.772 v 21.455 c 0,2.3285 0.44352,4.6015 1.3306,6.7082 0.88704,2.0513 2.1067,3.8808 3.7145,5.4331 1.5523,1.5523 3.3818,2.8274 5.4331,3.659 2.1067,0.88704 4.3243,1.3306 6.6528,1.3306 v -8.316 c -4.8787,0 -8.815,-3.9362 -8.815,-8.815 z"
       style="font-variant-ligatures:normal;fill:#b63e75"
       id="path51774" /><path
       d="m 675.21,400.19 c 2.1067,0 4.158,-0.38808 6.1538,-1.2197 1.885,-0.77616 3.5482,-1.9404 4.9896,-3.3818 1.4414,-1.4414 2.6057,-3.1601 3.3818,-5.045 0.83159,-1.9404 1.2751,-3.9917 1.2751,-6.1538 0,-2.1067 -0.44352,-4.158 -1.2751,-6.1538 -0.77617,-1.885 -1.9404,-3.5482 -3.3818,-4.9896 -1.4414,-1.4414 -3.1601,-2.6057 -4.9896,-3.3818 -1.9958,-0.8316 -4.0471,-1.2751 -6.1538,-1.2751 -2.1622,0 -4.2134,0.44352 -6.1538,1.2751 -1.885,0.77616 -3.6036,1.9404 -5.045,3.3818 -1.4414,1.4414 -2.6057,3.1601 -3.3818,4.9896 -0.83159,1.9958 -1.2197,4.0471 -1.2197,6.1538 0,2.1622 0.38808,4.2134 1.2197,6.1538 0.77617,1.885 1.9404,3.6036 3.3818,5.045 1.4414,1.4414 3.1601,2.6057 5.045,3.3818 1.9404,0.8316 3.9917,1.2197 6.1538,1.2197 z m 0,-23.285 c 4.1026,0 7.4844,3.3818 7.4844,7.4844 0,4.158 -3.3818,7.4844 -7.4844,7.4844 -4.158,0 -7.4844,-3.3264 -7.4844,-7.4844 0,-4.1026 3.3264,-7.4844 7.4844,-7.4844 z"
       style="font-variant-ligatures:normal;fill:#c33b6f"
       id="path51776" /><path
       d="m 693.93,386.22 v 13.638 h 8.316 v -13.64 c 0,-5.3777 4.3798,-9.702 9.702,-9.702 V 368.2 c -2.4394,0 -4.7678,0.44352 -6.9854,1.386 -2.1622,0.94248 -4.1026,2.2176 -5.7103,3.8808 -1.6632,1.6632 -2.9938,3.6036 -3.8808,5.7103 -0.94247,2.2176 -1.4414,4.6015 -1.4414,7.0409 z"
       style="font-variant-ligatures:normal;fill:#d13869"
       id="path51778" /></g></svg>